<?xml version="1.0" standalone="no"?>
<!DOCTYPE svg PUBLIC "-//W3C//DTD SVG 20010904//EN"
 "http://www.w3.org/TR/2001/REC-SVG-20010904/DTD/svg10.dtd">
<svg version="1.0" xmlns="http://www.w3.org/2000/svg"
 width="676.000000pt" height="676.000000pt" viewBox="0 0 676.000000 676.000000"
 preserveAspectRatio="xMidYMid meet">
<metadata>
Created by potrace 1.11, written by Peter Selinger 2001-2013
</metadata>
<g transform="translate(0.000000,676.000000) scale(0.100000,-0.100000)"
fill="#000000" stroke="none">
<path d="M1920 5966 l-1455 -794 -3 -1789 -2 -1789 1457 -794 c802 -437 1463
-795 1468 -794 6 1 664 387 1463 859 l1452 858 0 1788 0 1789 -1460 730 c-803
401 -1461 730 -1462 730 -2 0 -658 -358 -1458 -794z m2175 -344 c-360 -1 -950
-1 -1311 0 l-655 3 627 342 627 342 683 -342 684 -342 -655 -3z m-1092 -424
c-21 -25 -1224 -1330 -1254 -1363 -19 -19 -19 -2 -19 683 l0 702 647 0 646 0
-20 -22z m2157 -624 c0 -384 -4 -644 -9 -642 -11 4 -1378 1265 -1386 1279 -4
5 255 9 694 9 l701 0 0 -646z m740 -1074 l0 -1549 -137 -82 c-76 -45 -153 -90
-170 -101 l-33 -20 0 1736 0 1736 170 -85 170 -85 0 -1550z m-4570 -121 c0
-1437 -3 -1800 -12 -1796 -7 2 -112 59 -233 125 l-220 121 -2 1553 -3 1553
223 122 c122 66 228 122 235 122 9 1 12 -365 12 -1800z m2834 915 c427 -393
776 -719 776 -722 0 -4 -353 -360 -785 -792 l-785 -785 -720 720 c-396 396
-719 723 -718 727 5 12 1442 1568 1450 1568 3 0 355 -322 782 -716z m996
-1794 l0 -710 -710 0 c-390 0 -710 3 -710 7 0 10 1403 1413 1412 1413 5 0 8
-319 8 -710z m-2785 -70 l640 -640 -643 0 -642 0 0 640 c0 352 1 640 3 640 1
0 290 -288 642 -640z m2560 -1049 c-6 -4 -359 -214 -785 -465 -751 -444 -775
-457 -800 -443 -14 8 -383 209 -820 447 -437 238 -808 441 -825 451 -29 18 7
19 1605 19 920 0 1630 -4 1625 -9z"/>
</g>
</svg>
